#!OML:ASF I:\Random Stuff\random\construction\7_22_03\Session 2\subj1.ASF
:FULLY-SPECIFIED
:DEGREES
230
root -7.61359 17.7478 3.34418 7.08791 56.9386 5.72143
lowerback 2.35847 -1.31147 5.31855
upperback -1.53525 -1.44459 2.77687
thorax -2.97094 -0.781669 -0.04551
lowerneck -25.4051 0.850511 0.816068
upperneck 38.508 1.89059 -0.863914
head 19.0156 0.941941 -0.0472627
rclavicle -3.27001e-014 1.59028e-014
rhumerus -10.7395 4.72877 -58.3917
rradius 78.7595
rwrist -52.5972
rhand -2.44652 5.3322
rfingers 7.12502
rthumb 23.2451 -23.2848
lclavicle -3.27001e-014 1.59028e-014
lhumerus -13.1208 -14.8956 72.626
lradius 105.192
lwrist 85.5227
lhand 6.78141 61.2067
lfingers 7.12502
lthumb -147.932 -91.6009
rfemur -4.06984 9.54721 21.9345
rtibia 14.9219
rfoot -11.8753 -12.3598
rtoes -0.114543
lfemur -16.0134 1.9877 -15.8706
ltibia 25.7619
lfoot -7.51906 2.00384
ltoes -22.5496
231
root -7.57757 17.7447 3.34988 6.92899 57.5489 5.50302
lowerback 2.33547 -1.28925 5.38591
upperback -1.52984 -1.41427 2.77009
thorax -2.95319 -0.767373 -0.0921681
lowerneck -25.6066 0.887843 0.829589
upperneck 38.5501 1.99703 -0.970241
head 19.0986 0.969121 -0.0742028
rclavicle -3.01904e-014 1.11319e-014
rhumerus -11.0009 5.39285 -58.696
rradius 79.7047
rwrist -52.0074
rhand -1.69749 5.81297
rfingers 7.12502
rthumb 23.9635 -22.7115
lclavicle -3.01904e-014 1.11319e-014
lhumerus -13.2705 -14.8857 72.5461
lradius 104.634
lwrist 84.7613
lhand 7.06157 61.2124
lfingers 7.12502
lthumb -147.666 -91.6492
rfemur -3.68398 9.39366 22.1069
rtibia 14.529
rfoot -11.9092 -12.7256
rtoes -0.324522
lfemur -16.4994 1.28838 -15.8627
ltibia 25.3524
lfoot -7.51191 2.46999
ltoes -22.765
232
root -7.53941 17.7392 3.35493 6.72561 58.133 5.24307
lowerback 2.36192 -1.23178 5.49336
upperback -1.55324 -1.33188 2.71686
thorax -2.99302 -0.730158 -0.209921
lowerneck -25.5958 0.911359 0.772806
upperneck 38.4637 1.9915 -0.80539
head 19.0395 0.985179 0.0142468
rclavicle 1.72197e-014 4.45278e-014
rhumerus -11.3664 5.86287 -59.1323
rradius 80.6152
rwrist -50.9236
rhand -0.404109 5.30568
rfingers 7.12502
rthumb 25.2033 -23.0501
lclavicle 1.72197e-014 4.45278e-014
lhumerus -13.3702 -14.9953 72.4537
lradius 104.002
lwrist 84.3546
lhand 6.99745 61.1079
lfingers 7.12502
lthumb -147.727 -91.7413
rfemur -3.2695 9.26376 22.2942
rtibia 14.1064
rfoot -11.8594 -13.106
rtoes -0.846546
lfemur -16.9648 0.603721 -15.825
ltibia 24.8965
lfoot -7.7261 2.96155
ltoes -23.266
233
root -7.49884 17.7377 3.35952 6.61783 58.6852 5.05737
lowerback 2.33337 -1.18052 5.53388
upperback -1.56663 -1.26566 2.65801
thorax -2.9901 -0.698987 -0.296981
lowerneck -25.5521 0.928739 0.539536
upperneck 38.3398 1.9492 -0.388594
head 18.9417 0.998493 0.245228
rclavicle 7.0817e-015 -2.54444e-014
rhumerus -11.7794 6.33325 -59.6458
rradius 81.3777
rwrist -48.8791
rhand -0.44715 4.66362
rfingers 7.12502
rthumb 25.162 -23.698
lclavicle 7.0817e-015 -2.54444e-014
lhumerus -13.3566 -15.0262 72.3647
lradius 103.284
lwrist 84.3835
lhand 6.50002 60.8206
lfingers 7.12502
lthumb -148.2 -91.9335
rfemur -2.87971 9.12835 22.4172
rtibia 13.6496
rfoot -11.7541 -13.4372
rtoes -0.367431
lfemur -17.4834 -0.112412 -15.8071
ltibia 24.435
lfoot -8.09809 3.5975
ltoes -23.2711
234
root -7.45513 17.7392 3.36454 6.50079 59.1559 4.85017
lowerback 2.2816 -1.10236 5.54639
upperback -1.55974 -1.16763 2.60308
thorax -2.9505 -0.650449 -0.36688
lowerneck -25.6599 0.944317 0.336673
upperneck 38.3401 1.94801 -0.0904837
head 18.9618 1.01379 0.425429
rclavicle 2.92089e-014 -1.59028e-014
rhumerus -12.2611 6.60361 -60.2402
rradius 82.0705
rwrist -46.9932
rhand -1.94973 4.38695
rfingers 7.12502
rthumb 23.7216 -24.1691
lclavicle 2.92089e-014 -1.59028e-014
lhumerus -13.2654 -14.9916 72.2849
lradius 102.482
lwrist 84.605
lhand 5.82798 60.4829
lfingers 7.12502
lthumb -148.841 -92.1461
rfemur -2.47397 8.97351 22.532
rtibia 13.1311
rfoot -11.6756 -13.6549
rtoes -0.0893807
lfemur -17.9884 -0.791332 -15.7522
ltibia 23.9827
lfoot -8.27791 4.30498
ltoes -23.1699
235
root -7.40996 17.7408 3.36904 6.34946 59.5837 4.60518
lowerback 2.29665 -0.989645 5.60312
upperback -1.57684 -1.01648 2.51767
thorax -2.97213 -0.578364 -0.493623
lowerneck -25.6743 1.00121 0.472894
upperneck 38.3006 2.05981 -0.276573
head 18.9482 1.05142 0.338465
rclavicle 3.70112e-014 -2.70347e-014
rhumerus -12.7994 6.48992 -60.8185
rradius 82.775
rwrist -46.5197
rhand -3.64964 4.31407
rfingers 7.12502
rthumb 22.0904 -24.4441
lclavicle 3.70112e-014 -2.70347e-014
lhumerus -13.1485 -14.9534 72.2245
lradius 101.669
lwrist 84.3427
lhand 5.46234 60.3557
lfingers 7.12502
lthumb -149.189 -92.207
rfemur -2.02559 8.87254 22.661
rtibia 12.5377
rfoot -11.5094 -13.8794
rtoes -0.624728
lfemur -18.4845 -1.42108 -15.6623
ltibia 23.5512
lfoot -8.26898 5.03528
ltoes -22.3284
236
root -7.36545 17.7422 3.37256 6.22634 59.9859 4.37134
lowerback 2.32425 -0.879944 5.63818
upperback -1.59433 -0.869537 2.42517
thorax -3.0004 -0.508293 -0.6153
lowerneck -25.5561 1.15028 0.956575
upperneck 38.1903 2.34187 -0.910122
head 18.8757 1.14063 0.0138756
rclavicle -4.53478e-015 -2.06736e-014
rhumerus -13.2577 6.15089 -61.3182
rradius 83.4479
rwrist -46.8711
rhand -4.71464 4.72144
rfingers 7.12502
rthumb 21.0676 -24.1541
lclavicle -4.53478e-015 -2.06736e-014
lhumerus -13.031 -14.7898 72.2049
lradius 100.918
lwrist 83.1734
lhand 5.167 60.3873
lfingers 7.12502
lthumb -149.471 -92.1226
rfemur -1.55503 8.83521 22.782
rtibia 11.8438
rfoot -11.2202 -14.1597
rtoes -0.916881
lfemur -19.0332 -2.14307 -15.5531
ltibia 23.1802
lfoot -8.38468 6.00295
ltoes -22.1054
